<?xml version="1.0" encoding="utf-8"?>
<!-- Generator: Adobe Illustrator 15.1.0, SVG Export Plug-In . SVG Version: 6.00 Build 0)  -->
<!DOCTYPE svg PUBLIC "-//W3C//DTD SVG 1.1//EN" "http://www.w3.org/Graphics/SVG/1.1/DTD/svg11.dtd">
<svg version="1.1" id="Layer_1" xmlns="http://www.w3.org/2000/svg" xmlns:xlink="http://www.w3.org/1999/xlink" x="0px" y="0px"
	 width="512px" height="355px" viewBox="0 0 512 355" fill="#E9E979" enable-background="new 0 0 512 355" xml:space="preserve">
<g>
	<g>
		<path d="M79.79,174.625c1.698,3.251,2.548,4.877,4.246,8.128c-6.897,3.64-10.318,5.542-17.087,9.51
			c-7.138-12.068-14.274-24.136-21.411-36.204c8.192-4.798,12.338-7.089,20.698-11.457c7.147,11.698,20.169,16.627,34.287,10.121
			c13.447-6.101,17.336-13.521,14.537-20.873c-10.098-26.192-68.956,17.188-88.293-14.447
			c-11.324-18.514,1.7-42.967,29.287-55.156c11.504-5.147,26.268-8.556,34.857-3.234c-1.152-3.148-1.729-4.721-2.881-7.869
			c9.094-3.292,13.665-4.837,22.858-7.735c3.711,11.928,7.421,23.856,11.131,35.784c-9.566,3.02-14.323,4.646-23.772,8.128
			c-3.494-10.42-17.306-13.106-30.247-7.188c-13.46,6.194-16.983,13.651-13.459,20.375c11.204,21.064,75.664-18.989,86.786,20.585
			c6.372,23.396-11.485,40.077-32.305,49.487C100.038,176.539,89.103,178.739,79.79,174.625z"/>
		<path d="M153.4,133.645c4.332-1.165,6.503-1.72,10.856-2.777c-5.873-24.393-11.745-48.786-17.618-73.178
			c-5.189,1.261-7.777,1.923-12.941,3.311c-2.234-8.241-3.353-12.36-5.587-20.601c21.366-5.793,43.038-10.108,64.856-12.944
			c1.102,8.467,1.652,12.699,2.754,21.167c-6.671,0.886-10.006,1.38-16.651,2.47c4.192,25.111,8.385,50.222,12.575,75.333
			c10.521-1.755,21.099-3.076,31.704-3.965c-0.835-9.958-1.252-14.937-2.087-24.896c10.819-0.852,16.242-1.128,27.086-1.381
			c0.272,14.809,0.545,29.617,0.817,44.425c-30.419,0.559-60.785,4.852-90.384,12.877
			C156.629,145.549,155.553,141.581,153.4,133.645z"/>
		<path d="M257.307,119.99c5.146,0.03,7.72,0.081,12.863,0.254c0.903-25.073,1.81-50.145,2.722-75.217
			c-6.133-0.207-9.199-0.268-15.334-0.303c0.028-8.539,0.043-12.806,0.071-21.344c22.178,0.072,44.352,1.658,66.362,4.746
			c-1.189,8.456-1.782,12.682-2.971,21.138c-6.091-0.84-9.141-1.216-15.247-1.885c-2.673,24.946-5.346,49.893-8.019,74.839
			c5.123,0.561,7.682,0.877,12.791,1.582c-1.145,8.143-1.717,12.214-2.861,20.357c-16.731-2.349-33.587-3.553-50.446-3.608
			C257.266,132.324,257.279,128.213,257.307,119.99z"/>
		<path d="M317.437,124.828c4.407,0.708,6.607,1.089,10.999,1.905c4.637-24.657,9.274-49.314,13.91-73.972
			c-5.236-0.972-7.858-1.427-13.111-2.271c1.339-8.433,2.008-12.647,3.346-21.081c20.032,3.176,39.911,7.607,59.517,13.293
			c2.548,27.08,3.535,54.028,2.982,80.705c16.628-20.918,34.664-41.049,54.078-60.234c18.946,8.158,37.499,17.572,55.538,28.239
			c-4.347,7.35-6.518,11.023-10.866,18.373c-4.735-2.787-7.116-4.148-11.903-6.807c-12.133,21.96-24.265,43.921-36.396,65.882
			c4.016,2.23,6.014,3.372,9.986,5.71c-4.186,7.078-6.279,10.617-10.465,17.694c-13.174-7.791-26.709-14.702-40.524-20.732
			c3.213-7.362,4.819-11.043,8.031-18.405c3.505,1.538,5.255,2.326,8.734,3.94c9.369-20.115,18.739-40.23,28.108-60.346
			c-22.18,21.531-42.602,44.319-61.171,68.152c-6.697-2.525-10.069-3.717-16.843-5.958c0.578-30.2-0.875-60.732-4.401-91.382
			c-5.377,21.529-10.755,43.059-16.128,64.589c4.679,1.18,7.011,1.801,11.666,3.105c-2.187,7.73-3.278,11.593-5.465,19.323
			c-14.124-3.993-28.433-7.133-42.844-9.418C315.503,137.01,316.147,132.949,317.437,124.828z"/>
	</g>
	<g>
		<path d="M68.355,259.32c0-41.753,20.63-62.711,52.315-62.711c9.406,0,17.163,3.795,20.96,10.562v-8.912h27.891v47.364h-28.716
			c-1.321-16.173-7.262-20.299-17.659-20.299c-14.027,0-20.464,10.727-20.464,34.162c0,23.93,4.621,36.142,20.464,36.142
			c15.679,0,18.484-8.087,19.474-17.659h-19.31v-23.599h48.851v65.022l-19.969,2.475l-5.116-14.688
			c-5.776,9.737-14.523,14.688-34.161,14.688C87.829,321.866,68.355,301.733,68.355,259.32z"/>
		<path d="M207.482,293.151h10.562v-16.502l-33.337-49.84h-6.767v-28.551h54.296v27.725H220.52l16.669,25.58l16.832-25.58h-11.716
			v-27.725h52.975v28.551h-7.757l-35.646,50.169v16.172h10.562v27.396h-54.955V293.151z"/>
		<path d="M300.232,293.151h8.913v-66.342h-8.913v-28.551h54.956l16.667,66.343l17-66.343h54.789v28.551h-8.911v66.342h8.911v27.396
			H396.61v-26.57h6.271v-57.431l-22.443,84.001h-21.454l-22.61-84.166v57.595h10.067v26.57h-46.209V293.151z"/>
	</g>
</g>
</svg>
